<svg width="90" height="80" viewBox="0 0 90 80" fill="none" xmlns="http://www.w3.org/2000/svg">
<path
        d="M71.5263 42.8662V18.511C71.5263 13.6968 67.5615 9.73217 62.7474 9.73217L51.7026 9.73151L48.3983 2.93471C47.643 1.42416 46.0383 0.385742 44.3394 0.385742L27.4418 0.386401C25.743 0.386401 24.1375 1.33067 23.383 2.93537L19.9846 9.8264H8.93926C4.12503 9.8264 0.1604 13.7912 0.1604 18.6053V52.4949C0.1604 57.3091 4.03097 61.2737 8.93926 61.2737H53.2129C53.2129 71.3749 61.4255 79.5873 71.5265 79.5873C81.6274 79.5873 89.8401 71.3747 89.8401 61.2737C89.8401 51.1733 81.6274 42.8657 71.5265 42.8657L71.5263 42.8662ZM35.8431 50.7957C26.9693 50.7957 19.7004 43.6214 19.7004 34.6529C19.7004 25.7792 26.8746 18.5102 35.8431 18.5102C44.7169 18.5102 51.9858 25.6844 51.9858 34.6529C51.891 43.6214 44.7169 50.7957 35.8431 50.7957ZM71.5263 74.5845C64.1631 74.5845 58.1215 68.5429 58.1215 61.1797C58.1215 53.8165 64.1631 47.7749 71.5263 47.7749C78.8895 47.7749 84.9311 53.8165 84.9311 61.1797C84.9311 68.5429 78.8895 74.5845 71.5263 74.5845Z" fill="blue"/>
</svg>
